<?xml version="1.0" encoding="utf-8"?>
<!-- Generator: Adobe Illustrator 16.0.1, SVG Export Plug-In . SVG Version: 6.00 Build 0)  -->
<!DOCTYPE svg PUBLIC "-//W3C//DTD SVG 1.1//EN" "http://www.w3.org/Graphics/SVG/1.1/DTD/svg11.dtd">
<svg version="1.1" id="Layer_1" xmlns="http://www.w3.org/2000/svg" xmlns:xlink="http://www.w3.org/1999/xlink" x="0px" y="0px"
	 width="400px" height="400px" viewBox="0 0 400 400" enable-background="new 0 0 400 400" xml:space="preserve">
<circle fill="none" stroke="#FFFFFF" stroke-miterlimit="10" cx="140.797" cy="102.058" r="75.211"/>
<ellipse fill="none" stroke="#FFFFFF" stroke-miterlimit="10" cx="141.699" cy="102.058" rx="29.249" ry="75.211"/>
<ellipse fill="none" stroke="#FFFFFF" stroke-miterlimit="10" cx="140.797" cy="102.609" rx="75.211" ry="25.488"/>
<circle fill="#4382A8" stroke="#FDFEFF" stroke-miterlimit="10" cx="118.152" cy="77.807" r="6.503"/>
<line fill="none" stroke="#FFFFFF" stroke-miterlimit="10" x1="118.151" y1="77.807" x2="82.6" y2="117.283"/>
<line fill="none" stroke="#FFFFFF" stroke-miterlimit="10" x1="82.6" y1="117.283" x2="137.339" y2="92.1"/>
<line fill="none" stroke="#FFFFFF" stroke-miterlimit="10" x1="82.6" y1="117.797" x2="144.958" y2="115.142"/>
<line fill="none" stroke="#FFFFFF" stroke-miterlimit="10" x1="82.6" y1="117.283" x2="145.562" y2="102.477"/>
<circle fill="#4382A8" stroke="#FFFFFF" stroke-miterlimit="10" cx="145.562" cy="102.477" r="6.504"/>
<polygon opacity="0.8" fill="#1CA038" points="96,143.839 69,130.472 69,90.727 96,104.095 "/>
<circle fill="#8D4091" stroke="#FFFFFF" stroke-miterlimit="10" cx="137.339" cy="92.883" r="6.504"/>
<circle fill="#A88435" stroke="#FFFFFF" stroke-miterlimit="10" cx="145.562" cy="114.811" r="6.504"/>
<polygon fill="#FFFFFF" points="105.526,83.063 113.972,90.371 103.414,94.038 "/>
<polygon fill="#FFFFFF" points="123.365,101.841 133.964,105.359 125.614,112.789 "/>
<path fill="none" stroke="#FFFFFF" stroke-miterlimit="10" d="M71.667,148.667c0,0,12.909,43.167,66.627,43.167
	c58.298,0,72.041-43.167,72.041-43.167"/>
<polygon fill="#FFFFFF" points="70.526,145.063 78.972,152.371 68.414,156.038 "/>
<polygon fill="#FFFFFF" points="212.153,142.908 214.479,153.831 203.848,150.385 "/>
<path fill="none" stroke="#FFFFFF" stroke-width="2" stroke-miterlimit="10" d="M108,258v-41.587c0,0,0.875-5.58,6.5-5.58
	s6.5,5.58,6.5,5.58V258"/>
<ellipse fill="none" stroke="#FFFFFF" stroke-width="2" stroke-miterlimit="10" cx="114.625" cy="217.438" rx="3.5" ry="4.625"/>
<line fill="none" stroke="#FFFFFF" stroke-width="2" stroke-miterlimit="10" x1="112" y1="233" x2="117" y2="233"/>
<line fill="none" stroke="#FFFFFF" stroke-width="2" stroke-miterlimit="10" x1="112" y1="236" x2="117" y2="236"/>
<line fill="none" stroke="#FFFFFF" stroke-width="2" stroke-miterlimit="10" x1="112" y1="239" x2="117" y2="239"/>
<line fill="none" stroke="#FFFFFF" stroke-width="2" stroke-miterlimit="10" x1="134.835" y1="242" x2="149.562" y2="222.062"/>
<polygon fill="none" stroke="#FFFFFF" stroke-width="2" stroke-miterlimit="10" points="164,213 164,252 173.938,242 186,242 "/>
<line fill="none" stroke="#FFFFFF" stroke-miterlimit="10" x1="114.5" y1="208" x2="114.5" y2="197"/>
<line fill="none" stroke="#FFFFFF" stroke-miterlimit="10" x1="124" y1="214.5" x2="135" y2="214.5"/>
<line fill="none" stroke="#FFFFFF" stroke-miterlimit="10" x1="94" y1="214.5" x2="105" y2="214.5"/>
<line fill="none" stroke="#FFFFFF" stroke-miterlimit="10" x1="120.611" y1="210.389" x2="128.389" y2="202.611"/>
<line fill="none" stroke="#FFFFFF" stroke-miterlimit="10" x1="107.389" y1="210.389" x2="99.611" y2="202.611"/>
<line fill="none" stroke="#FFFFFF" stroke-miterlimit="10" x1="164.5" y1="209" x2="164.5" y2="198"/>
<line fill="none" stroke="#FFFFFF" stroke-miterlimit="10" x1="172" y1="213.5" x2="183" y2="213.5"/>
<line fill="none" stroke="#FFFFFF" stroke-miterlimit="10" x1="146" y1="213.5" x2="157" y2="213.5"/>
<line fill="none" stroke="#FFFFFF" stroke-miterlimit="10" x1="168.611" y1="211.389" x2="176.389" y2="203.611"/>
<line fill="none" stroke="#FFFFFF" stroke-miterlimit="10" x1="159.389" y1="211.389" x2="151.611" y2="203.611"/>
</svg>
