<?xml version="1.0" encoding="utf-8"?>
<!-- Generator: Adobe Illustrator 16.0.1, SVG Export Plug-In . SVG Version: 6.00 Build 0)  -->
<!DOCTYPE svg PUBLIC "-//W3C//DTD SVG 1.1//EN" "http://www.w3.org/Graphics/SVG/1.1/DTD/svg11.dtd">
<svg version="1.1" id="Layer_1" xmlns="http://www.w3.org/2000/svg" xmlns:xlink="http://www.w3.org/1999/xlink" x="0px" y="0px"
	 width="400px" height="400px" viewBox="0 0 400 400" enable-background="new 0 0 400 400" xml:space="preserve">
<rect x="5" y="6" opacity="0.7" width="390" height="388"/>
<circle fill="none" stroke="#FFFFFF" stroke-miterlimit="10" cx="187.48" cy="132.742" r="121.895"/>
<ellipse fill="none" stroke="#FFFFFF" stroke-miterlimit="10" cx="188.943" cy="132.742" rx="47.404" ry="121.894"/>
<ellipse fill="none" stroke="#FFFFFF" stroke-miterlimit="10" cx="187.48" cy="133.635" rx="121.895" ry="41.309"/>
<circle fill="#4382A8" stroke="#FDFEFF" stroke-miterlimit="10" cx="150.78" cy="93.439" r="10.54"/>
<line fill="none" stroke="#FFFFFF" stroke-miterlimit="10" x1="150.779" y1="93.439" x2="93.161" y2="157.417"/>
<line fill="none" stroke="#FFFFFF" stroke-miterlimit="10" x1="93.161" y1="157.417" x2="181.876" y2="116.603"/>
<line fill="none" stroke="#FFFFFF" stroke-miterlimit="10" x1="93.161" y1="158.25" x2="194.226" y2="153.947"/>
<line fill="none" stroke="#FFFFFF" stroke-miterlimit="10" x1="93.161" y1="157.417" x2="195.203" y2="133.42"/>
<circle fill="#4382A8" stroke="#FFFFFF" stroke-miterlimit="10" cx="195.204" cy="133.42" r="10.54"/>
<polygon opacity="0.8" fill="#1CA038" points="115,200.458 71,178.792 71,114.377 115,136.043 "/>
<circle fill="#8D4091" stroke="#FFFFFF" stroke-miterlimit="10" cx="181.877" cy="117.872" r="10.54"/>
<circle fill="#A88435" stroke="#FFFFFF" stroke-miterlimit="10" cx="195.204" cy="153.411" r="10.54"/>
<polygon fill="#FFFFFF" points="130.318,101.958 144.005,113.801 126.895,119.744 "/>
<polygon fill="#FFFFFF" points="159.228,132.391 176.407,138.093 162.874,150.133 "/>
<path fill="none" stroke="#FFFFFF" stroke-miterlimit="10" d="M75.441,208.281c0,0,20.921,69.96,107.982,69.96
	c94.485,0,116.755-69.96,116.755-69.96"/>
<polygon fill="#FFFFFF" points="73.593,202.44 87.281,214.284 70.169,220.227 "/>
<polygon fill="#FFFFFF" points="303.128,198.947 306.896,216.65 289.667,211.065 "/>
<path fill="none" stroke="#FFFFFF" stroke-width="2" stroke-miterlimit="10" d="M134,386v-67.922c0,0,1.884-9.044,11-9.044
	s11,9.044,11,9.044V386"/>
<ellipse fill="none" stroke="#FFFFFF" stroke-width="2" stroke-miterlimit="10" cx="145.064" cy="319.738" rx="5.672" ry="7.496"/>
<line fill="none" stroke="#FFFFFF" stroke-width="2" stroke-miterlimit="10" x1="141" y1="345" x2="149" y2="345"/>
<line fill="none" stroke="#FFFFFF" stroke-width="2" stroke-miterlimit="10" x1="141" y1="349" x2="149" y2="349"/>
<line fill="none" stroke="#FFFFFF" stroke-width="2" stroke-miterlimit="10" x1="141" y1="355" x2="149" y2="355"/>
<line fill="none" stroke="#FFFFFF" stroke-width="2" stroke-miterlimit="10" x1="177.819" y1="359.547" x2="201.687" y2="327.234"/>
<polygon fill="none" stroke="#FFFFFF" stroke-width="2" stroke-miterlimit="10" points="225,312.546 225,375.754 241.191,360 
	260.741,360 "/>
<line fill="none" stroke="#FFFFFF" stroke-miterlimit="10" x1="144.5" y1="305" x2="144.5" y2="287"/>
<line fill="none" stroke="#FFFFFF" stroke-miterlimit="10" x1="160" y1="315.5" x2="178" y2="315.5"/>
<line fill="none" stroke="#FFFFFF" stroke-miterlimit="10" x1="112" y1="315.5" x2="130" y2="315.5"/>
<line fill="none" stroke="#FFFFFF" stroke-miterlimit="10" x1="154.765" y1="308.313" x2="167.371" y2="295.71"/>
<line fill="none" stroke="#FFFFFF" stroke-miterlimit="10" x1="133.337" y1="308.313" x2="120.73" y2="295.71"/>
<line fill="none" stroke="#FFFFFF" stroke-miterlimit="10" x1="226.5" y1="306" x2="226.5" y2="288"/>
<line fill="none" stroke="#FFFFFF" stroke-miterlimit="10" x1="238" y1="313.5" x2="256" y2="313.5"/>
<line fill="none" stroke="#FFFFFF" stroke-miterlimit="10" x1="196" y1="313.5" x2="213" y2="313.5"/>
<line fill="none" stroke="#FFFFFF" stroke-miterlimit="10" x1="232.559" y1="309.935" x2="245.165" y2="297.33"/>
<line fill="none" stroke="#FFFFFF" stroke-miterlimit="10" x1="217.612" y1="309.935" x2="205.007" y2="297.33"/>
</svg>
